<?xml version="1.0" encoding="UTF-8"?>
<svg id="Layer_1" data-name="Layer 1" xmlns="http://www.w3.org/2000/svg" viewBox="0 0 803.4 799.83">
  <defs>
    <style>
      .cls-1 {
        fill: #fff;
      }

      .cls-2 {
        fill: #dd0b18;
      }
    </style>
  </defs>
  <path class="cls-1" d="M0,0c267.8,0,535.59,0,803.39,0,0,266.61,0,533.21,0,799.82-267.8,0-535.59,0-803.39,0C0,533.22,0,266.61,0,0ZM205.53,414.2v-32.94H99.76c-4.96-26.32,5.84-41.13,30.38-41.78,25.29-.67,50.61-.15,75.84-.15v-31.49c-31.19,0-61.49-1.82-91.48,.5-31.26,2.42-51.79,20.68-54.08,51.93-3.09,42.28-.77,84.95-.77,127.29h38.21v-73.37h107.66Zm10.39-30.26c22.72,0,43.96-.21,65.2,.07,14.5,.2,25.21,5.15,24.89,24.45-10.65,0-20.62-.27-30.57,.07-13.01,.45-26.18,.33-38.98,2.35-18.89,2.98-29.98,17.62-30.66,37.82-.71,21.09,7.29,36.55,26.66,37.93,36.24,2.59,72.8,.75,110,.75,0-29.11,.6-56.99-.19-84.83-.67-23.51-13.82-42.47-33.95-43.94-30.47-2.23-61.22-.58-92.41-.58v25.91Zm269.58,105.03c0-33.03,1.1-64.49-.42-95.82-.89-18.41-13.55-32.65-31.26-34.15-30.41-2.57-61.19-.71-91.58-.71v130.31h36.35v-103.32c9.72,0,17.4-.02,25.08,0,24.71,.07,26.28,1.61,26.32,26.38,.04,25.43,0,50.86,0,77.29h35.5Zm-1.2-130.65c1.99,5.91,3.42,10.95,5.37,15.78,13.53,33.57,27.76,66.86,40.44,100.75,4.57,12.22,11.11,16.16,23.59,15.44,12.98-.75,24.58,1.39,31.01-15.64,13.19-34.94,29.18-68.82,43.91-103.19,1.71-3.98,2.67-8.28,4.1-12.82q-35.67-2.23-48.71,29.15c-8.21,19.71-16.56,39.36-26.51,62.99-12.32-33.86-23-63.21-33.64-92.47h-39.55Zm213.42-50.57v183.42h33v-183.42h-33Zm-57.04,50.83v132.47h32.84v-132.47h-32.84Zm-415.41-50.3v29.85h109.18v-29.85h-109.18Zm119.41,29.94h90.25v-29.64h-90.25v29.64Zm178.98,.3v-29.68h-77.07v29.68h77.07Zm73.8-.44h76.37v-29.65h-76.37v29.65Zm-64.36,0h54.38v-29.63h-54.38v29.63Z"/>
  <path class="cls-2" d="M205.53,414.2H97.87v73.37H59.66c0-42.33-2.33-85.01,.77-127.29,2.29-31.25,22.82-49.51,54.08-51.93,29.98-2.32,60.29-.5,91.48-.5v31.49c-25.23,0-50.55-.52-75.84,.15-24.54,.65-35.34,15.46-30.38,41.78h105.77v32.94Z"/>
  <path class="cls-2" d="M215.92,383.95v-25.91c31.19,0,61.94-1.65,92.41,.58,20.13,1.47,33.28,20.43,33.95,43.94,.79,27.84,.19,55.72,.19,84.83-37.19,0-73.75,1.85-110-.75-19.37-1.39-27.38-16.84-26.66-37.93,.68-20.2,11.77-34.84,30.66-37.82,12.8-2.02,25.96-1.9,38.98-2.35,9.95-.34,19.92-.07,30.57-.07,.32-19.29-10.39-24.25-24.89-24.45-21.24-.29-42.48-.07-65.2-.07Zm90.28,52.33c-17.53,0-35.1-.88-52.45,.65-4.08,.36-9.42,8.5-10.35,13.73-.5,2.86,6.84,9.98,10.98,10.27,16.92,1.2,33.97,.5,51.82,.5v-25.15Z"/>
  <path class="cls-2" d="M485.5,488.98h-35.5c0-26.43,.03-51.86,0-77.29-.04-24.77-1.6-26.31-26.32-26.38-7.68-.02-15.36,0-25.08,0v103.32h-36.35v-130.31c30.39,0,61.17-1.86,91.58,.71,17.7,1.5,30.37,15.74,31.26,34.15,1.51,31.33,.42,62.79,.42,95.82Z"/>
  <path class="cls-2" d="M484.3,358.32h39.55c10.64,29.26,21.32,58.61,33.64,92.47,9.95-23.63,18.3-43.28,26.51-62.99q13.07-31.37,48.71-29.15c-1.43,4.54-2.4,8.84-4.1,12.82-14.72,34.37-30.72,68.25-43.91,103.19-6.43,17.03-18.02,14.89-31.01,15.64-12.47,.72-19.02-3.22-23.59-15.44-12.67-33.88-26.91-67.18-40.44-100.75-1.95-4.83-3.38-9.87-5.37-15.78Z"/>
  <path class="cls-2" d="M697.72,307.75h33v183.42h-33v-183.42Z"/>
  <path class="cls-2" d="M640.68,358.58h32.84v132.47h-32.84v-132.47Z"/>
  <path class="cls-2" d="M225.28,308.28h109.18v29.85h-109.18v-29.85Z"/>
  <path class="cls-2" d="M344.69,338.23v-29.64h90.25v29.64h-90.25Z"/>
  <path class="cls-2" d="M523.67,338.53h-77.07v-29.68h77.07v29.68Z"/>
  <path class="cls-2" d="M597.47,338.09v-29.65h76.37v29.65h-76.37Z"/>
  <path class="cls-2" d="M533.11,338.09v-29.63h54.38v29.63h-54.38Z"/>
  <path class="cls-1" d="M306.2,436.28v25.15c-17.84,0-34.9,.7-51.82-.5-4.15-.29-11.49-7.42-10.98-10.27,.92-5.24,6.27-13.37,10.35-13.73,17.36-1.53,34.92-.65,52.45-.65Z"/>
</svg>