<?xml version="1.0" encoding="UTF-8"?>
<svg id="Layer_1" data-name="Layer 1" xmlns="http://www.w3.org/2000/svg" viewBox="0 0 1041.57 517.51">
  <defs>
    <style>
      .cls-1 {
        fill: #fff;
      }

      .cls-2 {
        fill: #1c2173;
      }
    </style>
  </defs>
  <path class="cls-1" d="M0,0c347.19,0,694.38,0,1041.57,0,0,172.5,0,345,0,517.51-347.19,0-694.38,0-1041.56,0C0,345,0,172.5,0,0ZM493.57,314.18c21.56-52.95,41.83-103.39,62.89-153.5,2.45-5.84,8.55-11.39,14.35-14.32,11.99-6.04,20.37-16.04,13.71-27.08-7.93-13.15-2.95-22.43,1.48-33.28,4.4-10.78,8.78-21.57,13.72-33.74-16.66,0-31.11,1.78-44.96-.36-31.27-4.82-52.06,4.09-58.28,37.48-1.73,9.31-8.26,11.73-17.83,12.56-38.41,3.34-75.41,12.75-108.45,33.39-30.49,19.05-55.81,42.93-59.01,81.58-3.59,43.35,25.74,83.81,73.86,103.43,3.7-9.59,7.48-19.15,11-28.8,.49-1.34,.32-3.87-.57-4.6-6.69-5.51-14.12-10.19-20.42-16.08-28.1-26.27-32.72-58.47-10.76-86.08,28.13-35.36,67.96-46.2,113.24-51.07-13.62,34.2-26.44,65.85-38.84,97.66-12.57,32.24-24.73,64.64-37.38,97.76,55.98,20.8,110.79,23.89,166.37,12.48,40.73-8.36,78.26-24.07,107.37-55.26,31.93-34.21,34.99-78.2,7.51-114.85-20.62-27.51-49.34-43.49-78.26-53.77-5.34,13.8-10.25,26.46-14.84,38.32,11.43,6.69,25.35,13.28,37.51,22.26,38.23,28.25,39.29,72.48,2.36,102.28-38.94,31.41-84.7,37.25-135.77,33.58Zm-143.43,137.98c23.17,13.16,43.7,25.12,64.57,36.47,6.51,3.54,13.9,7.56,20.94,7.66,49.07,.65,98.16,.5,147.24,.02,4.47-.04,11.62-3.24,12.9-6.68,6.52-17.59,19.65-19.06,35.42-17.77,11.92,.97,24.08,1.09,35.97-.08,13.59-1.34,22.81,2.53,28.76,15.37,1.85,4,7.44,8.88,11.36,8.91,36.51,.32,73.03-.05,109.53-.81,15.57-.33,23.44-8.67,23.98-24.89,.54-16.07-4.73-26.59-21.68-28.73-8.07-1.02-16.2-1.98-24.32-2.15-15.63-.34-31.27-.1-46.88-.1v-28.02c13.83,0,26.42,.81,38.86-.24,11.61-.98,20.28,.36,19.88,14.52,9.23,0,16.85,.05,24.48-.03,2.13-.02,4.25-.45,6.3-.68,1.14-16.15-4.38-24.03-22.04-24.94-26.65-1.37-53.46-1.23-80.12,.08-17.77,.87-24.22,9.6-24.03,26.62,.17,15.93,6.55,23.58,23.96,25.04,16.81,1.42,33.79,.76,50.68,1.2,6.25,.16,12.48,.87,18.87,1.34v29.85c-20.27,0-39.78-.57-59.23,.23-10.14,.42-15.73-3.54-20.89-11.82-13.53-21.73-27.88-42.95-42.07-64.27-7.25-10.9-62.11-14.53-70.66-4.76-1.77,2.02-2.86,4.62-4.35,6.9-9.17,14.05-18.36,28.08-27.72,42.4-5.72-2.34-10.24-4.18-17.49-7.14,16.43-5.2,30.31-11.54,23.76-28.7-2.77-7.26-13.19-16.07-20.46-16.38-37.93-1.63-75.97-.76-116.01-.76v85.09c-24.97-13.85-46.88-26-70.71-39.21,21.86-15.8,41.36-29.9,62.02-44.83-41.96-13.07-60.71,24.01-91.24,38.56v-39.85h-36.22v75.27c-23.38-21.99-45.52-41.2-65.66-62.32-13.53-14.19-28.04-16.42-45.54-12v95.32h35.63v-67.64c20.24,18.49,39.31,34.04,56.08,51.78,15.78,16.69,33.67,19.78,56.13,14.91v-42.73Zm670.46-20.85c3.25-20.52-2-30.22-20.57-31.14-28.78-1.42-57.71-.78-86.53,.24-13.85,.49-21.49,9.18-21.35,23.75,.15,14.71-.2,29.43,.07,44.14,.36,19.25,5.29,25.59,25.05,26.86,24.42,1.57,48.99,1.87,73.45,1.21,28.55-.78,35.88-11.3,29.85-40.4h-31.64q-1.67,28.05-30.35,28.11c-6.54,.01-13.35,1.15-19.52-.34-3.89-.93-9.63-5.66-9.77-8.89-.89-20.5-.45-41.07-.45-62.6h57.57c1.07,6.21,2.14,12.44,3.28,19.06h30.91Zm-951.65-31.12H29.82v96.5c35.93,0,71.19,.13,106.44-.3,2.33-.03,4.61-4.32,6.92-6.62-2.63-1.85-5.24-5.26-7.9-5.32-21.63-.44-43.28-.25-66.31-.25v-84.02Zm119.94-.49h-36.05v95.43h36.05v-95.43Zm659.39-.11v95.59h34.14v-95.59h-34.14Z"/>
  <path class="cls-2" d="M493.57,314.18c51.06,3.67,96.83-2.16,135.77-33.58,36.93-29.8,35.87-74.03-2.36-102.28-12.15-8.98-26.08-15.57-37.51-22.26,4.59-11.86,9.5-24.53,14.84-38.32,28.92,10.28,57.64,26.26,78.26,53.77,27.47,36.65,24.42,80.64-7.51,114.85-29.11,31.19-66.65,46.89-107.37,55.26-55.58,11.41-110.39,8.32-166.37-12.48,12.65-33.13,24.81-65.52,37.38-97.76,12.4-31.81,25.22-63.46,38.84-97.66-45.28,4.87-85.12,15.71-113.24,51.07-21.96,27.61-17.34,59.81,10.76,86.08,6.3,5.89,13.73,10.57,20.42,16.08,.89,.73,1.06,3.26,.57,4.6-3.52,9.65-7.3,19.21-11,28.8-48.11-19.62-77.45-60.08-73.86-103.43,3.2-38.64,28.52-62.53,59.01-81.58,33.04-20.64,70.03-30.05,108.45-33.39,9.57-.83,16.09-3.25,17.83-12.56,6.22-33.38,27.01-42.3,58.28-37.48,13.85,2.14,28.3,.36,44.96,.36-4.94,12.16-9.32,22.95-13.72,33.74-4.43,10.85-9.41,20.14-1.48,33.28,6.66,11.04-1.72,21.03-13.71,27.08-5.8,2.92-11.9,8.48-14.35,14.32-21.07,50.11-41.33,100.55-62.89,153.5Z"/>
  <path class="cls-2" d="M350.14,452.16v42.73c-22.46,4.86-40.35,1.78-56.13-14.91-16.77-17.73-35.84-33.29-56.08-51.78v67.64h-35.63v-95.32c17.5-4.42,32.01-2.18,45.54,12,20.14,21.12,42.28,40.33,65.66,62.32v-75.27h36.22v39.85c30.53-14.55,49.28-51.63,91.24-38.56-20.66,14.94-40.17,29.03-62.02,44.83,23.83,13.22,45.74,25.37,70.71,39.21v-85.09c40.05,0,78.08-.87,116.01,.76,7.28,.31,17.69,9.12,20.46,16.38,6.56,17.15-7.33,23.49-23.76,28.7,7.25,2.96,11.76,4.8,17.49,7.14,9.37-14.32,18.56-28.35,27.72-42.4,1.49-2.28,2.58-4.88,4.35-6.9,8.55-9.77,63.4-6.14,70.66,4.76,14.19,21.31,28.54,42.54,42.07,64.27,5.16,8.28,10.75,12.24,20.89,11.82,19.46-.8,38.97-.23,59.23-.23v-29.85c-6.39-.47-12.62-1.18-18.87-1.34-16.9-.44-33.88,.22-50.68-1.2-17.41-1.47-23.79-9.11-23.96-25.04-.19-17.02,6.26-25.74,24.03-26.62,26.66-1.31,53.47-1.45,80.12-.08,17.66,.91,23.18,8.79,22.04,24.94-2.04,.23-4.17,.65-6.3,.68-7.62,.08-15.25,.03-24.48,.03,.4-14.16-8.27-15.49-19.88-14.52-12.44,1.05-25.04,.24-38.86,.24v28.02c15.6,0,31.25-.24,46.88,.1,8.12,.18,16.25,1.14,24.32,2.15,16.95,2.14,22.22,12.66,21.68,28.73-.54,16.22-8.41,24.56-23.98,24.89-36.5,.76-73.02,1.14-109.53,.81-3.92-.03-9.5-4.91-11.36-8.91-5.95-12.84-15.17-16.71-28.76-15.37-11.89,1.17-24.05,1.05-35.97,.08-15.77-1.29-28.9,.18-35.42,17.77-1.28,3.45-8.42,6.64-12.9,6.68-49.08,.48-98.17,.63-147.24-.02-7.04-.09-14.44-4.12-20.94-7.66-20.87-11.34-41.39-23.31-64.57-36.47Zm138.95-.78v33c19.49,0,37.86,.23,56.21-.08,12.85-.22,11.9-9.95,12.12-18.76,.22-9.16-3.29-14.34-13.24-14.22-17.88,.21-35.76,.06-55.09,.06Zm-.27-12.14c19.74,0,38.7,.75,57.5-.61,3.89-.28,10.3-8.59,10.01-12.83-.35-5.27-6.12-14.19-10.12-14.52-18.79-1.55-37.77-.69-57.39-.69v28.64Zm190.38,21.5c-11.63-18.56-21.44-34.21-32.51-51.88-11.41,18.38-21.19,34.15-32.19,51.88h64.71Z"/>
  <path class="cls-2" d="M1020.6,431.31h-30.91c-1.14-6.63-2.21-12.85-3.28-19.06h-57.57c0,21.54-.44,42.1,.45,62.6,.14,3.23,5.87,7.95,9.77,8.89,6.18,1.48,12.98,.35,19.52,.34q28.68-.06,30.35-28.11h31.64c6.03,29.1-1.3,39.62-29.85,40.4-24.46,.67-49.04,.36-73.45-1.21-19.76-1.27-24.69-7.61-25.05-26.86-.28-14.71,.07-29.43-.07-44.14-.14-14.57,7.49-23.26,21.35-23.75,28.82-1.02,57.75-1.66,86.53-.24,18.57,.92,23.83,10.62,20.57,31.14Z"/>
  <path class="cls-2" d="M68.95,400.19v84.02c23.04,0,44.68-.19,66.31,.25,2.67,.05,5.27,3.46,7.9,5.32-2.3,2.31-4.59,6.59-6.92,6.62-35.25,.43-70.51,.3-106.44,.3v-96.5h39.14Z"/>
  <path class="cls-2" d="M188.89,399.7v95.43h-36.05v-95.43h36.05Z"/>
  <path class="cls-2" d="M848.29,399.59h34.14v95.59h-34.14v-95.59Z"/>
  <path class="cls-1" d="M489.09,451.38c19.33,0,37.21,.15,55.09-.06,9.95-.12,13.47,5.06,13.24,14.22-.22,8.81,.73,18.54-12.12,18.76-18.35,.31-36.72,.08-56.21,.08v-33Z"/>
  <path class="cls-1" d="M488.82,439.24v-28.64c19.62,0,38.6-.86,57.39,.69,4.01,.33,9.77,9.25,10.12,14.52,.28,4.24-6.12,12.55-10.01,12.83-18.8,1.36-37.76,.61-57.5,.61Z"/>
  <path class="cls-1" d="M679.2,460.74h-64.71c11-17.72,20.79-33.5,32.19-51.88,11.07,17.67,20.88,33.32,32.51,51.88Z"/>
</svg>