<?xml version="1.0" encoding="UTF-8"?>
<svg id="_图层_1" data-name="图层 1" xmlns="http://www.w3.org/2000/svg" viewBox="0 0 623.62 117.28">
  <defs>
    <style>
      .cls-1, .cls-2 {
        fill: #005596;
      }

      .cls-2 {
        fill-rule: evenodd;
      }
    </style>
  </defs>
  <polyline class="cls-1" points="25.88 44.5 0 44.5 0 23.14 71.59 23.14 71.59 44.5 44.64 44.5 44.64 116.95 25.88 116.95 25.88 44.5"/>
  <path class="cls-1" d="M152.46,116.95h-21.13l-20.91-32.34h-11.64v32.34h-18.76V23.14h49.71c8.41,0,14.16,2.32,17.25,6.96,3.09,4.64,4.63,11.32,4.63,20.05v7.44c0,8.74-1.55,15.42-4.63,20.06-3.09,4.64-7.29,6.95-12.61,6.95h-2.81l20.91,32.34m-31.48-53.7c4.96,0,8.16-1.18,9.6-3.55,1.43-2.37,2.15-4.31,2.15-5.83s-.72-3.45-2.15-5.82c-1.44-2.37-4.64-3.56-9.6-3.56h-22.21v18.76h22.21Z"/>
  <path class="cls-1" d="M184.15,80.4h-5.39c.07,4.96,.88,8.74,2.43,11.33,1.54,2.59,4.62,3.88,9.22,3.88h41.19v21.34h-49.49c-8.34,0-14.12-2.23-17.36-6.71-3.24-4.47-4.85-11.24-4.85-20.3V50.15c0-9.05,1.61-15.82,4.85-20.3,3.24-4.47,9.02-6.71,17.36-6.71h49.49v21.35h-41.19c-4.6,0-7.67,1.3-9.22,3.88-1.55,2.59-2.36,6.15-2.43,10.67h52.83v21.35h-47.44"/>
  <path class="cls-1" d="M311.6,116.95h-18.87V59.38c0-5.18-.72-8.95-2.15-11.32-1.44-2.37-4.64-3.56-9.6-3.56h-10.57c-4.6,0-7.67,1.3-9.22,3.88-1.54,2.59-2.32,6.26-2.32,11v57.57h-18.97V50.15c0-9.05,1.61-15.82,4.85-20.3,3.24-4.47,9.03-6.71,17.36-6.71h27.61c8.4,0,14.16,2.32,17.25,6.96,3.09,4.64,4.64,11.32,4.64,20.05V116.95"/>
  <path class="cls-1" d="M320.01,116.95V23.14h49.39c8.34,0,14.12,2.24,17.36,6.71,3.24,4.48,4.85,11.25,4.85,20.3v39.78c0,9.06-1.61,15.83-4.85,20.3-3.24,4.47-9.02,6.71-17.36,6.71h-49.39m18.77-72.45v51.11h22.31c4.6,0,7.68-1.29,9.22-3.88,1.54-2.59,2.32-6.25,2.32-11v-21.35c0-4.74-.77-8.41-2.32-10.99-1.54-2.59-4.62-3.88-9.22-3.88h-22.31Z"/>
  <path class="cls-1" d="M462.25,117.28h-16.03v-48.94c0-4.4-.61-7.61-1.83-9.62-1.22-2.02-3.94-3.02-8.16-3.02h-8.98c-3.91,0-6.53,1.1-7.84,3.3-1.31,2.2-1.97,5.32-1.97,9.35v48.94h-16.13V60.5c0-7.7,1.37-13.45,4.12-17.25,2.75-3.81,7.67-5.71,14.76-5.71h23.46c7.15,0,12.04,1.97,14.66,5.91,2.63,3.94,3.94,9.62,3.94,17.04v56.78"/>
  <path class="cls-1" d="M489.93,86.21h-4.58c.06,4.22,.75,7.43,2.06,9.62,1.31,2.2,3.92,3.3,7.84,3.3h35v18.15h-42.06c-7.09,0-12.01-1.9-14.76-5.71-2.75-3.8-4.12-9.55-4.12-17.25V60.5c0-7.7,1.38-13.45,4.12-17.25,2.75-3.8,7.67-5.7,14.76-5.7h42.06v18.15h-35c-3.92,0-6.53,1.1-7.84,3.3-1.31,2.2-2,5.23-2.06,9.07h44.9v18.15h-40.32"/>
  <polyline class="cls-1" points="559.4 55.69 537.4 55.69 537.4 37.54 598.26 37.54 598.26 55.69 575.34 55.69 575.34 117.28 559.4 117.28 559.4 55.69"/>
  <path class="cls-2" d="M612.31,0c1.56,0,3.03,.28,4.4,.85,1.37,.57,2.59,1.39,3.65,2.47,1.05,1.05,1.86,2.25,2.41,3.63,.56,1.37,.84,2.82,.84,4.36s-.28,2.99-.83,4.34c-.54,1.35-1.36,2.54-2.43,3.59-1.1,1.09-2.34,1.93-3.73,2.51-1.39,.58-2.83,.87-4.32,.87s-2.95-.28-4.31-.86c-1.36-.57-2.58-1.4-3.65-2.49-1.08-1.07-1.9-2.29-2.47-3.66-.56-1.37-.84-2.8-.84-4.31s.29-2.92,.88-4.31c.57-1.4,1.41-2.64,2.5-3.74,1.04-1.06,2.23-1.86,3.58-2.42,1.35-.55,2.79-.83,4.32-.83m10.08,11.35c0-1.38-.25-2.67-.74-3.89-.49-1.22-1.2-2.3-2.13-3.23-.97-.96-2.06-1.69-3.29-2.2-1.23-.51-2.53-.76-3.91-.76s-2.61,.25-3.81,.74c-1.2,.5-2.27,1.22-3.22,2.16-.97,1-1.72,2.11-2.24,3.33-.52,1.23-.78,2.51-.78,3.83s.26,2.6,.76,3.81c.51,1.21,1.24,2.3,2.2,3.27,.96,.96,2.06,1.69,3.27,2.19,1.21,.51,2.48,.76,3.81,.76s2.62-.26,3.86-.77c1.24-.52,2.35-1.25,3.34-2.22,.94-.91,1.65-1.96,2.14-3.15,.49-1.18,.73-2.47,.73-3.86Zm-9.74-6.74c1.83,0,3.19,.29,4.07,.88,.88,.59,1.32,1.49,1.32,2.72,0,.92-.28,1.68-.84,2.3-.56,.62-1.3,.99-2.24,1.12l2.9,6h-2.24l-2.74-5.72h-3.04v5.72h-1.96V4.62h4.77Zm-.37,1.33h-2.44v4.68h2.44c1.37,0,2.34-.18,2.9-.52,.55-.35,.83-.93,.83-1.76s-.29-1.47-.88-1.84c-.58-.37-1.53-.56-2.85-.56Z"/>
</svg>