<?xml version="1.0" encoding="UTF-8"?>
<svg id="Layer_1" data-name="Layer 1" xmlns="http://www.w3.org/2000/svg" xmlns:xlink="http://www.w3.org/1999/xlink" viewBox="0 0 391.88 310.5">
  <defs>
    <style>
      .cls-1, .cls-2, .cls-3 {
        fill-rule: evenodd;
      }

      .cls-1, .cls-4 {
        fill: #1a9fda;
      }

      .cls-5 {
        fill: #58585a;
      }

      .cls-2 {
        fill: url(#linear-gradient);
      }

      .cls-6 {
        fill: #59585a;
      }
    </style>
    <linearGradient id="linear-gradient" x1="177.43" y1="139.21" x2="280.82" y2="139.21" gradientUnits="userSpaceOnUse">
      <stop offset="0" stop-color="#727375"/>
      <stop offset="1" stop-color="#a5a7aa"/>
    </linearGradient>
  </defs>
  <g>
    <g>
      <path class="cls-6" d="M43.21,206.79v38.82c0,15-16.56,15.4-16.56,15.4,0,0-16.56-.4-16.56-15.4v-38.82s-.78-6.73-10.1-6.73v46.46s1.67,23.27,26.65,23.27,26.65-23.27,26.65-23.27v-46.46c-9.31,0-10.1,6.73-10.1,6.73Z"/>
      <path class="cls-6" d="M274.16,206.79v38.82c0,15-16.56,15.4-16.56,15.4,0,0-16.57-.4-16.57-15.4v-38.82s-.78-6.73-10.1-6.73v46.46s1.68,23.27,26.67,23.27,26.65-23.27,26.65-23.27v-46.46c-9.33,0-10.1,6.73-10.1,6.73Z"/>
      <path class="cls-6" d="M144.77,246.52v-46.46c-9.31,0-10.1,6.73-10.1,6.73v62.17h10.1v-22.45Z"/>
      <path class="cls-6" d="M312.08,246.52v-46.46c-9.33,0-10.1,6.73-10.1,6.73v62.17h10.1v-22.45Z"/>
      <path class="cls-6" d="M390.47,246.52v-46.46c-9.31,0-10.08,6.73-10.08,6.73v62.17h10.08v-22.45Z"/>
      <path class="cls-6" d="M106.48,233.45s9.7-4.53,9.7-15.66-9.95-17.74-19.54-17.74h-25.81v68.91h33s14.29-3.82,14.29-16.88-7.64-18.63-11.64-18.63Zm-26.01-24.33h15.4c2.71,0,10.21,.77,10.21,10.35s-10.08,10.1-10.08,10.1h-15.53v-20.45Zm18.11,51.68h-18.11v-23.1h18.51c1.54,0,9.5,1.37,9.5,11.55s-9.9,11.55-9.9,11.55Z"/>
      <path class="cls-6" d="M219.89,260.03h-12.42s9.9-9.33,9.9-24.64-6.92-35.34-30.53-35.34c0,0-27.42-1.74-29.51,34.45,0,35.42,29.51,34.45,29.51,34.45,8.53-1.37,16.56-1.11,23.02-1.11h16.06s-.68-7.81-6.02-7.81Zm-32.34,1.11c-13.26,0-19.61-11.75-19.61-26.21s6.22-26.21,19.61-26.21,19.59,11.72,19.59,26.21-6.33,26.21-19.59,26.21Z"/>
      <rect class="cls-6" x="322.06" y="200.05" width="49.78" height="8.64"/>
      <rect class="cls-6" x="342.64" y="200.05" width="9.61" height="68.91"/>
    </g>
    <rect class="cls-4" x="122.91" width="9.87" height="10.15"/>
    <rect class="cls-4" x="142.53" y="51.58" width="9.85" height="10.17"/>
    <rect class="cls-4" x="142.53" y="19.92" width="9.85" height="10.15"/>
    <rect class="cls-4" x="152.39" y="9.77" width="9.87" height="10.15"/>
    <rect class="cls-4" x="152.39" y="36.95" width="9.87" height="10.15"/>
    <rect class="cls-4" x="162.26" y="24.5" width="9.86" height="10.15"/>
    <path class="cls-1" d="M122.91,26.9h9.87v54.5h9.57v-9.7h10.15v21.35h9.85V57.36h9.85v73.78s1.34,30.33,29.58,46.75c-29.13,0-78.87-13.15-78.87-72V26.9Z"/>
    <path class="cls-2" d="M177.43,139.82s5.23,25.67,33.16,38.08c25.7,0,74.68-20.62,69.91-77.37,0,0-18.13,71.21-103.06,39.29Z"/>
    <path class="cls-3" d="M230.01,142.5s39.19-2.25,50.81-55.12V1.34s-49.31-5.68-49.31,30.78-1.5,110.38-1.5,110.38Z"/>
  </g>
  <g>
    <path class="cls-5" d="M2.48,289.77h3.72l9.19,14.84h.06v-14.84h3.36v20.14h-3.72l-9.17-14.81h-.08v14.81H2.48v-20.14Z"/>
    <path class="cls-5" d="M55.76,289.77h14.5v3.05h-10.97v5.27h10.15v2.88h-10.15v5.89h11.17v3.05h-14.69v-20.14Z"/>
    <path class="cls-5" d="M105.28,289.77h16.3v3.05h-6.4v17.09h-3.53v-17.09h-6.37v-3.05Z"/>
    <path class="cls-5" d="M156.45,289.77h3.58l3.64,15.4h.06l4.06-15.4h3.61l3.95,15.4h.06l3.75-15.4h3.58l-5.56,20.14h-3.58l-4.03-15.4h-.06l-4.12,15.4h-3.64l-5.3-20.14Z"/>
    <path class="cls-5" d="M235.11,299.84c0,5.75-3.61,10.55-9.65,10.55s-9.65-4.8-9.65-10.55,3.61-10.55,9.65-10.55,9.65,4.79,9.65,10.55Zm-15.77,0c0,3.86,1.81,7.67,6.12,7.67s6.12-3.81,6.12-7.67-1.81-7.67-6.12-7.67-6.12,3.81-6.12,7.67Z"/>
    <path class="cls-5" d="M272.06,289.88h9.62c4.4,0,6.66,2.03,6.66,5.44,0,3.86-2.68,4.85-3.33,5.08v.06c1.21,.17,2.99,1.07,2.99,4.26,0,2.34,.34,4.48,1.1,5.3h-3.78c-.54-.87-.54-1.97-.54-2.96,0-3.7-.76-5.33-4-5.33h-5.19v8.29h-3.53v-20.14Zm3.53,9.17h5.78c2.23,0,3.44-1.1,3.44-3.22,0-2.57-1.66-3.07-3.5-3.07h-5.73v6.29Z"/>
    <path class="cls-5" d="M324.8,289.88h3.53v9.17l8.97-9.17h4.34l-8.04,8.04,8.6,12.1h-4.4l-6.6-9.62-2.88,2.85v6.77h-3.53v-20.14Z"/>
    <path class="cls-5" d="M378.99,303.31c0,3.1,2.28,4.31,5.11,4.31,3.1,0,4.26-1.52,4.26-3.05s-.85-2.17-1.66-2.48c-1.41-.54-3.24-.9-6.01-1.66-3.44-.93-4.46-3.02-4.46-5.11,0-4.03,3.72-5.92,7.36-5.92,4.2,0,7.73,2.23,7.73,6.43h-3.53c-.17-2.59-1.92-3.55-4.34-3.55-1.64,0-3.7,.59-3.7,2.62,0,1.41,.96,2.2,2.4,2.59,.31,.08,4.77,1.24,5.81,1.55,2.65,.79,3.92,3.05,3.92,5.13,0,4.51-4.01,6.32-8.01,6.32-4.6,0-8.32-2.2-8.4-7.19h3.53Z"/>
  </g>
</svg>